<?xml version="1.0" encoding="UTF-8" standalone="no"?>
<svg width="277px" height="77.4549763px" viewBox="0 0 277 77.4549763" version="1.1" xmlns="http://www.w3.org/2000/svg" xmlns:xlink="http://www.w3.org/1999/xlink" xmlns:sketch="http://www.bohemiancoding.com/sketch/ns">
    <title>logo</title>
    <description>Created with Sketch (http://www.bohemiancoding.com/sketch)</description>
    <defs></defs>
    <g id="Page-1" stroke="none" stroke-width="1" fill="none" fill-rule="evenodd" sketch:type="MSPage">
        <g id="logo" sketch:type="MSArtboardGroup">
            <g id="mygassi-logo_outline" sketch:type="MSLayerGroup" transform="translate(9.189573, 2.625592)">
                <g id="Page-1">
                    <g id="logo_email">
                        <g id="MyGassi-_x2B_-DIE-SPÜRNASE-FÜR_x27_S-H" transform="translate(0.000000, 6.403253)" fill="#58A300" sketch:type="MSShapeGroup">
                            <g id="Group">
                                <path d="M20.9100262,11.6539212 C20.5251791,10.1171404 20.2686143,9.09261986 20.2686143,7.42777397 C20.2686143,3.84195205 23.7322383,-0.256130137 27.5807094,-0.256130137 C29.889792,-0.256130137 30.916051,0.896455479 30.916051,1.92097603 C30.916051,2.94549658 30.0180744,4.61034247 27.9655565,7.55583904 C28.478686,10.6294007 29.6332273,16.0081336 30.0180744,19.9781507 L37.2018871,11.3977911 C38.4847108,6.01905822 41.0503582,3.45775685 44.6422645,3.45775685 C46.1816529,3.45775685 47.7210414,4.35421233 47.7210414,6.01905822 C47.7210414,7.2997089 45.4119587,9.22068493 42.718029,11.7819863 C41.1786405,18.3133048 40.5372287,25.9972089 40.5372287,28.04625 C40.5372287,28.5585103 40.7937934,28.6865753 41.1786405,28.6865753 C41.8200524,28.6865753 44.3856998,27.0217295 47.3361942,22.7955822 C48.2341708,22.7955822 49.003865,23.3078425 49.003865,24.2042979 C49.003865,27.0217295 41.4352053,34.5775685 37.3301694,34.5775685 C34.7645221,34.5775685 33.7382631,33.4249829 33.7382631,30.8636815 C33.7382631,27.5339897 34.1231102,24.8446233 35.6624986,18.4413699 L30.4029215,24.8446233 C30.4029215,28.8146404 26.9392975,33.9372432 23.3473912,33.9372432 C21.2948733,33.9372432 19.7554849,32.7846575 19.7554849,30.4794863 C19.7554849,29.4549658 20.3968967,28.4304452 23.0908265,25.9972089 C22.8342617,22.411387 22.3211322,18.3133048 22.1928499,17.0326541 C16.2918609,32.0162671 11.6736956,36.8827397 6.02927135,36.8827397 C1.79595317,36.8827397 -0.384847108,34.5775685 -0.384847108,30.3514212 C-0.384847108,25.7410788 2.05251791,22.6675171 5.13129477,22.6675171 C6.28583609,22.6675171 7.18381268,23.1797774 7.44037742,23.9481678 C6.6706832,25.7410788 6.15755372,27.6620548 6.15755372,28.5585103 C6.15755372,30.4794863 6.6706832,30.8636815 7.95350689,30.9917466 C10.1343072,31.1198116 13.7262135,27.1497945 20.9100262,11.6539212 L20.9100262,11.6539212 Z" id="Shape"></path>
                                <path d="M48.3624532,27.7901199 C47.4644766,24.5884932 47.0796295,23.0517123 47.0796295,20.7465411 C47.0796295,16.5203938 50.7998182,13.3187671 53.7503127,13.3187671 C55.6745482,13.3187671 56.3159601,14.0871575 56.3159601,15.4958733 C54.2634422,17.0326541 53.7503127,18.4413699 53.7503127,20.7465411 C53.7503127,21.7710616 54.1351598,24.2042979 55.0331364,27.4059247 C55.8028306,26.6375342 56.7008072,25.4849486 56.9573719,24.9726884 C56.9573719,24.5884932 56.8290896,24.0762329 56.8290896,23.4359075 C56.8290896,21.3868664 57.2139367,18.6975 57.8553485,16.904589 C58.4967604,15.1116781 59.0098898,14.4713527 60.1644312,14.4713527 C62.0886667,14.4713527 63.8846199,17.0326541 63.8846199,18.9536301 C63.8846199,20.490411 63.243208,22.411387 61.7038196,24.8446233 C61.9603843,25.4849486 62.6017962,26.125274 63.1149257,26.125274 C64.5260317,26.125274 65.9371378,24.4604281 67.0916791,22.5394521 C67.8613733,22.5394521 68.7593499,23.1797774 68.7593499,24.0762329 C68.7593499,26.6375342 65.0391612,29.967226 61.9603843,29.967226 C60.805843,29.967226 59.6513017,29.7110959 58.8816075,28.8146404 C58.368478,29.5830308 57.0856543,30.7356164 56.3159601,31.5040068 C56.5725248,32.9127226 56.7008072,34.7056336 56.7008072,35.474024 C56.7008072,39.9563014 54.1351598,44.0543836 50.030124,44.0543836 C47.9776061,44.0543836 47.2079119,43.029863 47.2079119,41.4930822 C47.2079119,40.2124315 47.9776061,38.0353253 50.5432535,35.3459589 C50.030124,33.8091781 49.6452769,32.6565925 48.3624532,27.7901199 L48.3624532,27.7901199 Z" id="Shape"></path>
                                <path d="M87.3602934,27.7901199 C87.2320111,34.4495034 85.1794932,42.9017979 76.8411392,42.9017979 C70.9401502,42.9017979 66.5785496,39.5721062 66.5785496,34.9617637 C66.5785496,33.0407877 67.4765262,31.5040068 69.4007618,30.7356164 C67.9896557,29.1988356 67.2199615,26.8936644 67.2199615,24.0762329 C67.2199615,12.9345719 76.8411392,1.92097603 84.409799,1.92097603 C88.25827,1.92097603 89.6693761,4.09808219 89.6693761,7.17164384 C89.6693761,11.0135959 87.3602934,14.3432877 84.6663637,14.3432877 C83.8966695,14.3432877 83.1269753,14.0871575 82.8704105,13.5748973 C83.2552576,12.5503767 83.6401047,10.5013356 83.6401047,9.22068493 C83.6401047,7.55583904 83.2552576,7.04357877 82.4855634,7.04357877 C79.1502218,7.04357877 73.7623623,15.3678082 73.7623623,22.5394521 C73.7623623,25.3568836 75.1734684,26.7655993 77.3542686,26.7655993 C78.50881,26.7655993 79.7916337,26.3814041 81.2027397,25.8691438 C81.5875868,20.3623459 81.2027397,18.3133048 84.409799,18.3133048 C86.7188816,18.3133048 89.1562466,19.0816952 89.1562466,20.490411 C89.1562466,21.8991267 88.5148348,23.3078425 87.3602934,25.4849486 L87.3602934,27.7901199 L87.3602934,27.7901199 Z M72.2229739,32.4004623 C73.6340799,35.474024 76.071445,37.6511301 78.6370923,37.6511301 C81.8441516,37.6511301 81.2027397,34.3214384 81.3310221,30.4794863 C79.4067866,31.8882021 76.9694215,32.9127226 74.7886213,32.9127226 C73.8906447,32.7846575 72.9926681,32.6565925 72.2229739,32.4004623 L72.2229739,32.4004623 Z" id="Shape"></path>
                                <path d="M95.5703651,33.5530479 C93.1330001,33.5530479 91.3370469,31.5040068 91.3370469,27.6620548 C91.3370469,21.2588014 96.7249064,14.4713527 100.958225,14.4713527 C101.599636,14.4713527 101.856201,14.5994178 102.112766,14.7274829 L102.241048,12.2942466 C102.625895,11.9100514 103.139025,11.7819863 103.780437,11.7819863 C106.730931,11.7819863 108.27032,13.7029623 108.27032,15.2397432 C108.27032,15.7520034 108.142037,16.904589 107.75719,18.0571747 C106.217802,23.4359075 105.704672,26.253339 105.704672,27.2778596 C105.704672,28.1743151 105.832955,28.3023801 106.217802,28.3023801 C107.115778,28.3023801 109.296579,26.6375342 112.118791,22.7955822 C113.016767,22.7955822 113.658179,23.3078425 113.658179,24.0762329 C113.658179,26.8936644 106.474366,33.8091781 103.39559,33.8091781 C101.471354,33.8091781 100.316813,33.0407877 100.316813,30.2233562 C100.316813,29.7110959 100.316813,29.1988356 100.445095,28.5585103 C99.033989,32.5285274 97.1097535,33.5530479 95.5703651,33.5530479 L95.5703651,33.5530479 Z M101.856201,17.5449144 C99.6754009,18.9536301 97.622883,22.5394521 97.622883,25.8691438 C97.622883,27.4059247 98.1360125,27.6620548 98.7774243,27.6620548 C99.4188362,27.6620548 99.9319656,27.2778596 100.445095,26.6375342 L101.856201,17.5449144 L101.856201,17.5449144 Z" id="Shape"></path>
                                <path d="M137.390417,12.5503767 C140.21263,12.5503767 141.367171,14.3432877 141.367171,15.7520034 C141.367171,16.776524 140.340912,17.6729795 137.646982,19.0816952 C138.160112,21.1307363 140.084347,24.4604281 140.084347,27.1497945 C140.084347,32.4004623 136.107594,34.3214384 132.259123,34.3214384 C129.180346,34.3214384 126.229851,32.7846575 126.229851,29.0707705 C126.229851,26.8936644 127.76924,24.5884932 130.206605,24.5884932 C130.719734,24.5884932 131.104581,24.7165582 131.361146,24.9726884 C131.232864,25.6130137 131.232864,26.3814041 131.232864,27.1497945 C131.232864,28.9427055 132.259123,29.5830308 133.028817,29.5830308 C133.413664,29.5830308 133.926793,29.3269007 133.926793,28.5585103 C133.926793,27.0217295 132.387405,23.5639726 131.745993,20.8746062 C129.308628,21.7710616 126.742981,22.5394521 124.177333,23.0517123 C124.433898,24.0762329 125.07531,26.253339 125.07531,27.4059247 C125.07531,32.0162671 121.739968,34.5775685 117.634933,34.5775685 C114.043026,34.5775685 109.681426,32.5285274 109.681426,26.3814041 C109.681426,23.3078425 111.477379,22.1552568 116.993521,21.2588014 C116.608674,19.8500856 116.480391,18.1852397 116.480391,17.1607192 C116.480391,13.5748973 119.430886,11.141661 123.279357,11.141661 C125.716722,11.141661 127.25611,12.1661815 127.25611,14.3432877 C127.25611,15.2397432 126.871263,16.1361986 126.358134,16.6484589 C125.588439,16.2642637 124.818745,16.1361986 124.049051,16.1361986 C123.151074,16.1361986 122.637945,16.3923288 122.637945,17.1607192 C122.637945,18.0571747 122.89451,18.8255651 123.407639,20.2342808 C125.588439,19.8500856 129.95004,18.4413699 131.745993,17.4168493 C132.259123,14.8555479 134.568205,12.5503767 137.390417,12.5503767 L137.390417,12.5503767 Z M118.789474,28.6865753 C118.789474,28.04625 118.276344,26.3814041 117.891497,24.7165582 C115.838979,25.1007534 114.941003,25.3568836 114.941003,25.8691438 C114.941003,27.5339897 116.736956,29.5830308 118.148062,29.5830308 C118.404627,29.7110959 118.789474,29.4549658 118.789474,28.6865753 L118.789474,28.6865753 Z" id="Shape"></path>
                                <path d="M143.804536,21.6429966 C143.804536,19.0816952 147.653007,14.5994178 150.346937,14.5994178 C152.271172,14.5994178 152.527737,15.6239384 152.527737,17.4168493 C152.527737,18.5694349 151.758043,20.3623459 150.988349,22.1552568 C149.833807,25.1007534 149.192395,26.5094692 149.192395,27.5339897 C149.192395,28.04625 149.44896,28.1743151 149.833807,28.1743151 C150.475219,28.1743151 152.399455,26.7655993 155.221667,22.6675171 C155.991361,22.6675171 156.889338,23.3078425 156.889338,24.2042979 C156.889338,26.8936644 150.090372,34.1933733 146.113619,34.1933733 C143.547971,34.1933733 142.649995,33.0407877 142.649995,30.7356164 C142.649995,28.8146404 143.163124,27.0217295 144.189383,24.4604281 C143.932818,23.4359075 143.804536,22.5394521 143.804536,21.6429966 L143.804536,21.6429966 Z M151.886325,3.20162671 C153.553996,3.20162671 155.606514,5.12260274 155.606514,6.40325342 C155.606514,7.42777397 154.83682,9.09261986 152.656019,11.6539212 C150.988349,11.6539212 149.705525,10.3732705 149.705525,7.94003425 C149.833807,4.4822774 150.475219,3.20162671 151.886325,3.20162671 L151.886325,3.20162671 Z" id="Shape"></path>
                            </g>
                            <g id="Group" transform="translate(0.000000, 46.103425)">
                                <path d="M-0.513129477,2.56130137 C-0.513129477,2.4332363 -0.384847108,2.30517123 -0.256564738,2.30517123 L2.56564738,2.30517123 C4.74644766,2.30517123 6.54240083,4.09808219 6.54240083,6.27518836 C6.54240083,8.45229452 4.74644766,10.2452055 2.56564738,10.2452055 L-0.384847108,10.2452055 C-0.513129477,10.2452055 -0.641411846,10.1171404 -0.641411846,9.98907534 L-0.641411846,2.56130137 L-0.513129477,2.56130137 Z M2.30908265,8.58035959 C3.59190634,8.58035959 4.48988292,7.55583904 4.48988292,6.27518836 C4.48988292,4.99453767 3.59190634,3.97001712 2.30908265,3.97001712 L1.28282369,3.97001712 L1.28282369,8.58035959 L2.30908265,8.58035959 L2.30908265,8.58035959 Z" id="Shape"></path>
                                <path d="M7.95350689,2.56130137 C7.95350689,2.4332363 8.08178926,2.30517123 8.21007163,2.30517123 L9.62117769,2.30517123 C9.74946006,2.30517123 9.87774243,2.4332363 9.87774243,2.56130137 L9.87774243,10.1171404 C9.87774243,10.2452055 9.74946006,10.3732705 9.62117769,10.3732705 L8.08178926,10.3732705 C7.95350689,10.3732705 7.82522452,10.2452055 7.82522452,10.1171404 L7.82522452,2.56130137 L7.95350689,2.56130137 Z" id="Shape"></path>
                                <path d="M11.6736956,2.56130137 C11.6736956,2.4332363 11.801978,2.30517123 11.9302603,2.30517123 L16.676708,2.30517123 C16.8049904,2.30517123 16.9332727,2.4332363 16.9332727,2.56130137 L16.9332727,3.84195205 C16.9332727,3.97001712 16.8049904,4.09808219 16.676708,4.09808219 L13.4696488,4.09808219 L13.4696488,5.50679795 L16.0352962,5.50679795 C16.1635785,5.50679795 16.2918609,5.63486301 16.2918609,5.76292808 L16.2918609,7.04357877 C16.2918609,7.17164384 16.1635785,7.2997089 16.0352962,7.2997089 L13.4696488,7.2997089 L13.4696488,8.83648973 L16.676708,8.83648973 C16.8049904,8.83648973 16.9332727,8.96455479 16.9332727,9.09261986 L16.9332727,10.3732705 C16.9332727,10.5013356 16.8049904,10.6294007 16.676708,10.6294007 L11.9302603,10.6294007 C11.801978,10.6294007 11.6736956,10.5013356 11.6736956,10.3732705 L11.6736956,2.56130137 L11.6736956,2.56130137 Z" id="Shape"></path>
                                <path d="M20.5251791,9.22068493 L21.0383086,8.32422945 C21.1665909,8.19616438 21.2948733,8.19616438 21.4231557,8.19616438 C21.4231557,8.19616438 22.3211322,8.83648973 23.0908265,8.83648973 C23.6039559,8.83648973 23.8605207,8.58035959 23.8605207,8.19616438 C23.8605207,7.68390411 23.4756736,7.2997089 22.7059794,7.04357877 C21.6797204,6.65938356 20.5251791,5.89099315 20.5251791,4.4822774 C20.5251791,3.32969178 21.4231557,2.17710616 23.2191088,2.17710616 C24.3736502,2.17710616 25.2716267,2.81743151 25.6564738,3.07356164 C25.7847562,3.20162671 25.7847562,3.32969178 25.7847562,3.45775685 L25.1433444,4.35421233 C25.015062,4.4822774 24.8867796,4.61034247 24.7584973,4.4822774 C24.6302149,4.4822774 23.8605207,3.84195205 23.0908265,3.84195205 C22.7059794,3.84195205 22.3211322,4.09808219 22.3211322,4.4822774 C22.3211322,4.8664726 22.7059794,5.25066781 23.6039559,5.63486301 C24.5019325,6.01905822 25.9130386,6.65938356 25.9130386,8.19616438 C25.9130386,9.34875 24.8867796,10.6294007 23.2191088,10.6294007 C21.6797204,10.6294007 20.9100262,9.98907534 20.6534614,9.73294521 C20.5251791,9.47681507 20.3968967,9.34875 20.5251791,9.22068493 L20.5251791,9.22068493 Z" id="Shape"></path>
                                <path d="M27.3241446,2.56130137 C27.3241446,2.4332363 27.452427,2.30517123 27.5807094,2.30517123 L30.4029215,2.30517123 C31.8140276,2.30517123 32.9685689,3.45775685 32.9685689,4.8664726 C32.9685689,6.27518836 31.8140276,7.42777397 30.4029215,7.42777397 L29.2483802,7.42777397 L29.2483802,10.1171404 C29.2483802,10.2452055 29.1200978,10.3732705 28.9918154,10.3732705 L27.5807094,10.3732705 C27.452427,10.3732705 27.3241446,10.2452055 27.3241446,10.1171404 L27.3241446,2.56130137 L27.3241446,2.56130137 Z M30.1463568,5.76292808 C30.6594862,5.76292808 31.0443334,5.37873288 31.0443334,4.8664726 C31.0443334,4.35421233 30.6594862,3.97001712 30.1463568,3.97001712 L28.9918154,3.97001712 L28.9918154,5.76292808 L30.1463568,5.76292808 L30.1463568,5.76292808 Z" id="Shape"></path>
                                <path d="M33.9948278,2.56130137 C33.9948278,2.4332363 34.1231102,2.30517123 34.2513926,2.30517123 L35.6624986,2.30517123 C35.790781,2.30517123 35.9190634,2.4332363 35.9190634,2.56130137 L35.9190634,7.17164384 C35.9190634,7.94003425 36.5604752,8.58035959 37.3301694,8.58035959 C38.0998637,8.58035959 38.7412755,7.94003425 38.7412755,7.17164384 L38.7412755,2.56130137 C38.7412755,2.4332363 38.8695579,2.30517123 38.9978402,2.30517123 L40.4089463,2.30517123 C40.5372287,2.30517123 40.665511,2.4332363 40.665511,2.56130137 L40.665511,7.2997089 C40.665511,9.09261986 39.254405,10.5013356 37.3301694,10.5013356 C35.5342163,10.5013356 34.1231102,9.09261986 34.1231102,7.2997089 L34.1231102,2.56130137 L33.9948278,2.56130137 Z M34.8928044,0.640325342 C34.8928044,0.256130137 35.2776515,-0.128065068 35.6624986,-0.128065068 C36.0473458,-0.128065068 36.4321929,0.256130137 36.4321929,0.640325342 C36.4321929,1.02452055 36.0473458,1.40871575 35.6624986,1.40871575 C35.2776515,1.40871575 34.8928044,1.15258562 34.8928044,0.640325342 L34.8928044,0.640325342 Z M37.9715813,0.640325342 C37.9715813,0.256130137 38.3564284,-0.128065068 38.7412755,-0.128065068 C39.1261226,-0.128065068 39.5109697,0.256130137 39.5109697,0.640325342 C39.5109697,1.02452055 39.1261226,1.40871575 38.7412755,1.40871575 C38.228146,1.53678082 37.9715813,1.15258562 37.9715813,0.640325342 L37.9715813,0.640325342 Z" id="Shape"></path>
                                <path d="M42.3331818,2.56130137 C42.3331818,2.4332363 42.4614642,2.30517123 42.5897466,2.30517123 L46.0533706,2.30517123 C47.4644766,2.30517123 48.6190179,3.45775685 48.6190179,4.73840753 C48.6190179,5.76292808 47.9776061,6.65938356 46.9513471,7.04357877 L48.4907356,9.98907534 C48.6190179,10.1171404 48.4907356,10.3732705 48.2341708,10.3732705 L46.6947824,10.3732705 C46.5665,10.3732705 46.5665,10.3732705 46.5665,10.2452055 L44.8988292,7.17164384 L44.129135,7.17164384 L44.129135,10.1171404 C44.129135,10.2452055 44.0008526,10.3732705 43.8725703,10.3732705 L42.4614642,10.3732705 C42.3331818,10.3732705 42.2048995,10.2452055 42.2048995,10.1171404 L42.2048995,2.56130137 L42.3331818,2.56130137 Z M45.7968058,5.76292808 C46.3099353,5.76292808 46.6947824,5.37873288 46.6947824,4.8664726 C46.6947824,4.35421233 46.3099353,3.97001712 45.7968058,3.97001712 L44.129135,3.97001712 L44.129135,5.76292808 L45.7968058,5.76292808 L45.7968058,5.76292808 Z" id="Shape"></path>
                                <path d="M50.030124,2.4332363 C50.030124,2.30517123 50.1584064,2.17710616 50.2866887,2.17710616 L50.5432535,2.17710616 L55.1614188,6.53131849 L55.1614188,2.56130137 C55.1614188,2.4332363 55.2897011,2.30517123 55.4179835,2.30517123 L56.8290896,2.30517123 C56.9573719,2.30517123 57.0856543,2.4332363 57.0856543,2.56130137 L57.0856543,10.2452055 C57.0856543,10.3732705 56.9573719,10.5013356 56.8290896,10.5013356 L56.7008072,10.5013356 L56.5725248,10.5013356 L52.0826419,5.89099315 L52.0826419,10.1171404 C52.0826419,10.2452055 51.9543595,10.3732705 51.8260772,10.3732705 L50.4149711,10.3732705 C50.2866887,10.3732705 50.1584064,10.2452055 50.1584064,10.1171404 L50.030124,2.4332363 L50.030124,2.4332363 Z" id="Shape"></path>
                                <path d="M57.8553485,9.98907534 L61.4472549,2.30517123 C61.4472549,2.17710616 61.5755372,2.17710616 61.7038196,2.17710616 L61.832102,2.17710616 C61.9603843,2.17710616 61.9603843,2.17710616 62.0886667,2.30517123 L65.680573,9.98907534 C65.8088554,10.1171404 65.680573,10.2452055 65.4240083,10.2452055 L64.1411846,10.2452055 C63.8846199,10.2452055 63.8846199,10.1171404 63.7563375,9.98907534 L63.3714904,9.09261986 L60.2927135,9.09261986 L59.9078664,9.98907534 C59.9078664,10.1171404 59.7795841,10.2452055 59.5230193,10.2452055 L58.2401956,10.2452055 C57.9836309,10.3732705 57.8553485,10.1171404 57.8553485,9.98907534 L57.8553485,9.98907534 Z M62.6017962,7.55583904 L61.7038196,5.63486301 L60.805843,7.55583904 L62.6017962,7.55583904 L62.6017962,7.55583904 Z" id="Shape"></path>
                                <path d="M66.0654202,9.22068493 L66.5785496,8.32422945 C66.706832,8.19616438 66.8351144,8.19616438 66.9633967,8.19616438 C66.9633967,8.19616438 67.8613733,8.83648973 68.6310675,8.83648973 C69.144197,8.83648973 69.4007618,8.58035959 69.4007618,8.19616438 C69.4007618,7.68390411 69.0159146,7.2997089 68.2462204,7.04357877 C67.2199615,6.65938356 66.0654202,5.89099315 66.0654202,4.4822774 C66.0654202,3.32969178 66.9633967,2.17710616 68.7593499,2.17710616 C69.9138912,2.17710616 70.8118678,2.81743151 71.1967149,3.07356164 C71.3249973,3.20162671 71.3249973,3.32969178 71.3249973,3.45775685 L70.6835854,4.35421233 C70.5553031,4.4822774 70.4270207,4.61034247 70.2987383,4.4822774 C70.170456,4.4822774 69.4007618,3.84195205 68.6310675,3.84195205 C68.2462204,3.84195205 67.8613733,4.09808219 67.8613733,4.4822774 C67.8613733,4.8664726 68.2462204,5.25066781 69.144197,5.63486301 C70.0421736,6.01905822 71.4532797,6.65938356 71.4532797,8.19616438 C71.4532797,9.34875 70.4270207,10.6294007 68.7593499,10.6294007 C67.2199615,10.6294007 66.4502673,9.98907534 66.1937025,9.73294521 C66.0654202,9.47681507 65.9371378,9.34875 66.0654202,9.22068493 L66.0654202,9.22068493 Z" id="Shape"></path>
                                <path d="M72.8643857,2.56130137 C72.8643857,2.4332363 72.9926681,2.30517123 73.1209505,2.30517123 L77.8673981,2.30517123 C77.9956805,2.30517123 78.1239629,2.4332363 78.1239629,2.56130137 L78.1239629,3.84195205 C78.1239629,3.97001712 77.9956805,4.09808219 77.8673981,4.09808219 L74.6603389,4.09808219 L74.6603389,5.50679795 L77.2259863,5.50679795 C77.3542686,5.50679795 77.482551,5.63486301 77.482551,5.76292808 L77.482551,7.04357877 C77.482551,7.17164384 77.3542686,7.2997089 77.2259863,7.2997089 L74.6603389,7.2997089 L74.6603389,8.83648973 L77.8673981,8.83648973 C77.9956805,8.83648973 78.1239629,8.96455479 78.1239629,9.09261986 L78.1239629,10.3732705 C78.1239629,10.5013356 77.9956805,10.6294007 77.8673981,10.6294007 L73.1209505,10.6294007 C72.9926681,10.6294007 72.8643857,10.5013356 72.8643857,10.3732705 L72.8643857,2.56130137 L72.8643857,2.56130137 Z" id="Shape"></path>
                                <path d="M82.1007163,2.56130137 C82.1007163,2.4332363 82.2289987,2.30517123 82.357281,2.30517123 L87.1037287,2.30517123 C87.2320111,2.30517123 87.3602934,2.4332363 87.3602934,2.56130137 L87.3602934,3.84195205 C87.3602934,3.97001712 87.2320111,4.09808219 87.1037287,4.09808219 L83.8966695,4.09808219 L83.8966695,5.76292808 L86.4623169,5.76292808 C86.5905992,5.76292808 86.7188816,5.89099315 86.7188816,6.01905822 L86.7188816,7.2997089 C86.7188816,7.42777397 86.5905992,7.55583904 86.4623169,7.55583904 L83.8966695,7.55583904 L83.8966695,10.3732705 C83.8966695,10.5013356 83.7683871,10.6294007 83.6401047,10.6294007 L82.2289987,10.6294007 C82.1007163,10.6294007 81.9724339,10.5013356 81.9724339,10.3732705 L81.9724339,2.56130137 L82.1007163,2.56130137 Z" id="Shape"></path>
                                <path d="M88.5148348,2.56130137 C88.5148348,2.4332363 88.6431171,2.30517123 88.7713995,2.30517123 L90.1825056,2.30517123 C90.3107879,2.30517123 90.4390703,2.4332363 90.4390703,2.56130137 L90.4390703,7.17164384 C90.4390703,7.94003425 91.0804822,8.58035959 91.8501764,8.58035959 C92.6198706,8.58035959 93.2612824,7.94003425 93.2612824,7.17164384 L93.2612824,2.56130137 C93.2612824,2.4332363 93.3895648,2.30517123 93.5178472,2.30517123 L94.9289532,2.30517123 C95.0572356,2.30517123 95.185518,2.4332363 95.185518,2.56130137 L95.185518,7.2997089 C95.185518,9.09261986 93.7744119,10.5013356 91.8501764,10.5013356 C90.0542232,10.5013356 88.6431171,9.09261986 88.6431171,7.2997089 L88.6431171,2.56130137 L88.5148348,2.56130137 Z M89.4128114,0.640325342 C89.4128114,0.256130137 89.7976585,-0.128065068 90.1825056,-0.128065068 C90.5673527,-0.128065068 90.9521998,0.256130137 90.9521998,0.640325342 C90.9521998,1.02452055 90.5673527,1.40871575 90.1825056,1.40871575 C89.7976585,1.40871575 89.4128114,1.15258562 89.4128114,0.640325342 L89.4128114,0.640325342 Z M92.4915882,0.640325342 C92.4915882,0.256130137 92.8764353,-0.128065068 93.2612824,-0.128065068 C93.6461295,-0.128065068 94.0309766,0.256130137 94.0309766,0.640325342 C94.0309766,1.02452055 93.6461295,1.40871575 93.2612824,1.40871575 C92.748153,1.53678082 92.4915882,1.15258562 92.4915882,0.640325342 L92.4915882,0.640325342 Z" id="Shape"></path>
                                <path d="M96.8531888,2.56130137 C96.8531888,2.4332363 96.9814711,2.30517123 97.1097535,2.30517123 L100.573377,2.30517123 C101.984484,2.30517123 103.139025,3.45775685 103.139025,4.73840753 C103.139025,5.76292808 102.497613,6.65938356 101.471354,7.04357877 L103.010742,9.98907534 C103.139025,10.1171404 103.010742,10.3732705 102.754178,10.3732705 L101.214789,10.3732705 C101.086507,10.3732705 101.086507,10.3732705 101.086507,10.2452055 L99.5471185,7.17164384 L98.7774243,7.17164384 L98.7774243,10.1171404 C98.7774243,10.2452055 98.6491419,10.3732705 98.5208596,10.3732705 L97.1097535,10.3732705 C96.9814711,10.3732705 96.8531888,10.2452055 96.8531888,10.1171404 L96.8531888,2.56130137 L96.8531888,2.56130137 Z M100.445095,5.76292808 C100.958225,5.76292808 101.343072,5.37873288 101.343072,4.8664726 C101.343072,4.35421233 100.958225,3.97001712 100.445095,3.97001712 L98.7774243,3.97001712 L98.7774243,5.76292808 L100.445095,5.76292808 L100.445095,5.76292808 Z" id="Shape"></path>
                                <path d="M103.908719,4.35421233 L103.908719,2.56130137 C103.908719,2.4332363 104.037001,2.30517123 104.165284,2.30517123 L105.319825,2.30517123 C105.448108,2.30517123 105.57639,2.4332363 105.57639,2.56130137 L105.06326,4.35421233 C105.06326,4.4822774 104.934978,4.4822774 104.806696,4.4822774 L104.165284,4.4822774 C104.037001,4.61034247 103.908719,4.4822774 103.908719,4.35421233 L103.908719,4.35421233 Z" id="Shape"></path>
                                <path d="M106.217802,9.22068493 L106.730931,8.32422945 C106.859214,8.19616438 106.987496,8.19616438 107.115778,8.19616438 C107.115778,8.19616438 108.013755,8.83648973 108.783449,8.83648973 C109.296579,8.83648973 109.553143,8.58035959 109.553143,8.19616438 C109.553143,7.68390411 109.168296,7.2997089 108.398602,7.04357877 C107.372343,6.65938356 106.217802,5.89099315 106.217802,4.4822774 C106.217802,3.32969178 107.115778,2.17710616 108.911731,2.17710616 C110.066273,2.17710616 110.964249,2.81743151 111.349096,3.07356164 C111.477379,3.20162671 111.477379,3.32969178 111.477379,3.45775685 L110.835967,4.35421233 C110.707685,4.4822774 110.579402,4.61034247 110.45112,4.4822774 C110.322838,4.4822774 109.553143,3.84195205 108.783449,3.84195205 C108.398602,3.84195205 108.013755,4.09808219 108.013755,4.4822774 C108.013755,4.8664726 108.398602,5.25066781 109.296579,5.63486301 C110.194555,6.01905822 111.605661,6.65938356 111.605661,8.19616438 C111.605661,9.34875 110.579402,10.6294007 108.911731,10.6294007 C107.372343,10.6294007 106.602649,9.98907534 106.346084,9.73294521 C106.089519,9.47681507 106.089519,9.34875 106.217802,9.22068493 L106.217802,9.22068493 Z" id="Shape"></path>
                                <path d="M115.454132,2.56130137 C115.454132,2.4332363 115.582415,2.30517123 115.710697,2.30517123 L117.121803,2.30517123 C117.250085,2.30517123 117.378368,2.4332363 117.378368,2.56130137 L117.378368,5.50679795 L120.585427,5.50679795 L120.585427,2.56130137 C120.585427,2.4332363 120.713709,2.30517123 120.841992,2.30517123 L122.253098,2.30517123 C122.38138,2.30517123 122.509663,2.4332363 122.509663,2.56130137 L122.509663,10.1171404 C122.509663,10.2452055 122.38138,10.3732705 122.253098,10.3732705 L120.841992,10.3732705 C120.713709,10.3732705 120.585427,10.2452055 120.585427,10.1171404 L120.585427,7.04357877 L117.250085,7.04357877 L117.250085,10.1171404 C117.250085,10.2452055 117.121803,10.3732705 116.993521,10.3732705 L115.582415,10.3732705 C115.454132,10.3732705 115.32585,10.2452055 115.32585,10.1171404 L115.32585,2.56130137 L115.454132,2.56130137 Z" id="Shape"></path>
                                <path d="M123.279357,9.98907534 L126.871263,2.30517123 C126.871263,2.17710616 126.999546,2.17710616 127.127828,2.17710616 L127.25611,2.17710616 C127.384393,2.17710616 127.384393,2.17710616 127.512675,2.30517123 L131.104581,9.98907534 C131.232864,10.1171404 131.104581,10.2452055 130.848017,10.2452055 L129.565193,10.2452055 C129.308628,10.2452055 129.308628,10.1171404 129.180346,9.98907534 L128.795499,9.09261986 L125.716722,9.09261986 L125.331875,9.98907534 C125.331875,10.1171404 125.203592,10.2452055 124.947028,10.2452055 L123.664204,10.2452055 C123.279357,10.3732705 123.279357,10.1171404 123.279357,9.98907534 L123.279357,9.98907534 Z M128.025804,7.55583904 L127.127828,5.63486301 L126.229851,7.55583904 L128.025804,7.55583904 L128.025804,7.55583904 Z" id="Shape"></path>
                                <path d="M132.002558,2.4332363 C132.002558,2.30517123 132.13084,2.17710616 132.259123,2.17710616 L132.515687,2.17710616 L137.133853,6.53131849 L137.133853,2.56130137 C137.133853,2.4332363 137.262135,2.30517123 137.390417,2.30517123 L138.801524,2.30517123 C138.929806,2.30517123 139.058088,2.4332363 139.058088,2.56130137 L139.058088,10.2452055 C139.058088,10.3732705 138.929806,10.5013356 138.801524,10.5013356 L138.673241,10.5013356 L138.544959,10.5013356 L134.055076,5.89099315 L134.055076,10.1171404 C134.055076,10.2452055 133.926793,10.3732705 133.798511,10.3732705 L132.13084,10.3732705 C132.002558,10.3732705 131.874276,10.2452055 131.874276,10.1171404 L132.002558,2.4332363 L132.002558,2.4332363 Z" id="Shape"></path>
                                <path d="M140.854041,2.56130137 C140.854041,2.4332363 140.982324,2.30517123 141.110606,2.30517123 L143.932818,2.30517123 C146.113619,2.30517123 147.909572,4.09808219 147.909572,6.27518836 C147.909572,8.45229452 146.113619,10.2452055 143.932818,10.2452055 L141.110606,10.2452055 C140.982324,10.2452055 140.854041,10.1171404 140.854041,9.98907534 L140.854041,2.56130137 L140.854041,2.56130137 Z M143.676254,8.58035959 C144.959077,8.58035959 145.857054,7.55583904 145.857054,6.27518836 C145.857054,4.99453767 144.959077,3.97001712 143.676254,3.97001712 L142.521712,3.97001712 L142.521712,8.58035959 L143.676254,8.58035959 L143.676254,8.58035959 Z" id="Shape"></path>
                                <path d="M150.603501,6.40325342 L148.037854,2.56130137 C147.909572,2.4332363 148.037854,2.17710616 148.166136,2.17710616 L149.705525,2.17710616 C149.833807,2.17710616 149.833807,2.17710616 149.833807,2.30517123 L151.373196,4.61034247 L152.912584,2.30517123 L153.040866,2.17710616 L154.580255,2.17710616 C154.708537,2.17710616 154.83682,2.30517123 154.708537,2.56130137 L152.14289,6.40325342 L152.14289,10.1171404 C152.14289,10.2452055 152.014608,10.3732705 151.886325,10.3732705 L150.475219,10.3732705 C150.346937,10.3732705 150.218654,10.2452055 150.218654,10.1171404 L150.218654,6.40325342 L150.603501,6.40325342 Z" id="Shape"></path>
                            </g>
                        </g>
                        <g id="Karlie_bester_Freund" transform="translate(177.029670, 0.000000)">
                            <g id="Group">
                                <g id="Clipped">
                                    <g id="SVGID_1_"></g>
                                    <path d="M79.2785042,48.1524658 C79.2785042,51.8663527 77.6108334,53.6592637 73.6340799,54.299589 L13.5979311,65.0570548 C13.0848017,65.1851199 12.8282369,65.1851199 12.3151074,65.1851199 C8.97976585,65.1851199 7.18381268,62.3676884 7.18381268,59.806387 L7.18381268,22.5394521 C7.18381268,19.5939555 9.62117769,17.1607192 12.5716722,17.1607192 L73.7623623,17.1607192 C76.7128568,17.1607192 79.0219394,19.5939555 79.0219394,22.5394521 L79.2785042,48.1524658 L79.2785042,48.1524658 Z M73.8906447,14.5994178 L12.6999546,14.5994178 C8.338354,14.5994178 4.74644766,18.0571747 4.74644766,22.5394521 L4.74644766,59.806387 C4.74644766,63.648339 7.56865978,67.7464212 12.4433898,67.7464212 L12.8282369,67.7464212 L65.4240083,67.7464212 C70.0421736,67.7464212 73.3775152,64.2886644 73.3775152,59.6783219 L73.3775152,57.1170205 L74.2754918,56.9889555 C79.4067866,56.0925 81.9724339,53.2750685 81.9724339,48.2805308 L81.9724339,22.6675171 C81.8441516,18.1852397 78.3805276,14.5994178 73.8906447,14.5994178 L73.8906447,14.5994178 L73.8906447,14.5994178 Z" id="Shape" fill="#58A300" sketch:type="MSShapeGroup"></path>
                                </g>
                                <g id="Clipped_1_">
                                    <g id="SVGID_2_"></g>
                                    <path d="M13.7262135,42.3895377 C13.7262135,41.8772774 13.8544959,41.7492123 14.3676254,41.7492123 L18.0878141,41.7492123 C18.6009435,41.7492123 18.7292259,41.8772774 18.7292259,42.3895377 L18.7292259,42.9017979 C18.7292259,43.4140582 18.6009435,43.5421233 18.0878141,43.5421233 L15.650449,43.5421233 L15.650449,45.2069692 L17.5746846,45.2069692 C18.0878141,45.2069692 18.2160964,45.3350342 18.2160964,45.8472945 L18.2160964,46.3595548 C18.2160964,46.8718151 18.0878141,46.9998801 17.5746846,46.9998801 L15.650449,46.9998801 L15.650449,49.4331164 C15.650449,49.9453767 15.5221667,50.0734418 15.0090372,50.0734418 L14.239343,50.0734418 C13.7262135,50.0734418 13.5979311,49.9453767 13.5979311,49.4331164 L13.5979311,42.3895377 L13.7262135,42.3895377 L13.7262135,42.3895377 Z" id="Shape_1_" fill="#58A300" sketch:type="MSShapeGroup"></path>
                                </g>
                                <g id="Clipped_2_">
                                    <g id="SVGID_3_"></g>
                                    <path d="M20.0120496,42.3895377 C20.0120496,41.8772774 20.140332,41.7492123 20.6534614,41.7492123 L21.4231557,41.7492123 C21.9362851,41.7492123 22.0645675,41.8772774 22.0645675,42.3895377 L22.0645675,48.2805308 L24.8867796,48.2805308 C25.3999091,48.2805308 25.5281915,48.4085959 25.5281915,48.9208562 L25.5281915,49.4331164 C25.5281915,49.9453767 25.3999091,50.0734418 24.8867796,50.0734418 L20.7817438,50.0734418 C20.2686143,50.0734418 20.140332,49.9453767 20.140332,49.4331164 L20.140332,42.3895377 L20.0120496,42.3895377 L20.0120496,42.3895377 Z" id="Shape_2_" fill="#58A300" sketch:type="MSShapeGroup"></path>
                                </g>
                                <g id="Clipped_3_">
                                    <g id="SVGID_4_"></g>
                                    <path d="M30.6594862,46.6156849 L30.1463568,44.950839 C30.0180744,44.4385788 29.7615097,43.5421233 29.7615097,43.5421233 L29.7615097,43.5421233 C29.7615097,43.5421233 29.6332273,44.4385788 29.3766626,44.950839 L28.8635331,46.6156849 L30.6594862,46.6156849 L30.6594862,46.6156849 Z M28.6069683,42.1334075 C28.7352507,41.7492123 28.9918154,41.6211473 29.3766626,41.6211473 L30.4029215,41.6211473 C30.7877686,41.6211473 31.0443334,41.7492123 31.1726157,42.1334075 L33.6099807,49.1769863 C33.7382631,49.6892466 33.4816984,49.9453767 33.0968513,49.9453767 L32.327157,49.9453767 C31.9423099,49.9453767 31.6857452,49.8173116 31.5574628,49.4331164 L31.1726157,48.2805308 L28.6069683,48.2805308 L28.2221212,49.4331164 C28.0938389,49.8173116 27.8372741,49.9453767 27.452427,49.9453767 L26.6827328,49.9453767 C26.1696033,49.9453767 25.9130386,49.6892466 26.1696033,49.1769863 L28.6069683,42.1334075 L28.6069683,42.1334075 Z" id="Shape_3_" fill="#58A300" sketch:type="MSShapeGroup"></path>
                                </g>
                                <g id="Clipped_4_">
                                    <g id="SVGID_5_"></g>
                                    <path d="M34.8928044,42.2614726 C34.8928044,41.7492123 35.1493692,41.6211473 35.5342163,41.6211473 L36.5604752,41.6211473 C36.9453223,41.6211473 37.2018871,41.7492123 37.3301694,42.1334075 L38.3564284,45.0789041 L38.8695579,46.4876199 L39.3826874,45.0789041 L40.4089463,42.1334075 C40.5372287,41.7492123 40.7937934,41.6211473 41.1786405,41.6211473 L42.2048995,41.6211473 C42.718029,41.6211473 42.8463113,41.7492123 42.8463113,42.2614726 L43.3594408,49.3050514 C43.3594408,49.8173116 43.2311584,49.9453767 42.718029,49.9453767 L41.9483347,49.9453767 C41.4352053,49.9453767 41.3069229,49.8173116 41.3069229,49.3050514 L40.9220758,46.1034247 C40.7937934,45.4630993 40.9220758,44.6947089 40.9220758,44.6947089 L40.9220758,44.6947089 C40.9220758,44.6947089 40.665511,45.5911644 40.4089463,46.1034247 L39.7675345,48.0244007 C39.6392521,48.4085959 39.3826874,48.536661 38.9978402,48.536661 L38.4847108,48.536661 C38.0998637,48.536661 37.8432989,48.4085959 37.7150166,48.0244007 L36.9453223,46.1034247 C36.81704,45.5911644 36.4321929,44.6947089 36.4321929,44.6947089 L36.4321929,44.6947089 C36.4321929,44.6947089 36.5604752,45.4630993 36.4321929,46.1034247 L36.3039105,49.3050514 C36.3039105,49.8173116 36.0473458,49.9453767 35.6624986,49.9453767 L34.8928044,49.9453767 C34.379675,49.9453767 34.2513926,49.6892466 34.2513926,49.3050514 L34.8928044,42.2614726 L34.8928044,42.2614726 Z" id="Shape_4_" fill="#58A300" sketch:type="MSShapeGroup"></path>
                                </g>
                                <g id="Clipped_5_">
                                    <g id="SVGID_6_"></g>
                                    <path d="M44.5139821,42.3895377 C44.5139821,41.8772774 44.6422645,41.7492123 45.155394,41.7492123 L45.9250882,41.7492123 C46.4382177,41.7492123 46.5665,41.8772774 46.5665,42.3895377 L46.5665,49.4331164 C46.5665,49.9453767 46.4382177,50.0734418 45.9250882,50.0734418 L45.155394,50.0734418 C44.6422645,50.0734418 44.5139821,49.9453767 44.5139821,49.4331164 L44.5139821,42.3895377 L44.5139821,42.3895377 Z" id="Shape_5_" fill="#58A300" sketch:type="MSShapeGroup"></path>
                                </g>
                                <g id="Clipped_6_">
                                    <g id="SVGID_7_"></g>
                                    <path d="M47.9776061,42.3895377 C47.9776061,41.8772774 48.1058885,41.7492123 48.6190179,41.7492123 L49.5169945,41.7492123 C49.9018416,41.7492123 50.1584064,41.8772774 50.2866887,42.2614726 L52.3392066,45.7192295 C52.7240538,46.2314897 53.1089009,47.1279452 53.1089009,47.1279452 L53.1089009,47.1279452 C53.1089009,47.1279452 52.9806185,46.2314897 52.9806185,45.7192295 L52.9806185,42.5176027 C52.9806185,42.0053425 53.1089009,41.8772774 53.6220303,41.8772774 L54.3917246,41.8772774 C54.904854,41.8772774 55.0331364,42.0053425 55.0331364,42.5176027 L55.0331364,49.5611815 C55.0331364,50.0734418 54.904854,50.2015068 54.3917246,50.2015068 L53.493748,50.2015068 C53.1089009,50.2015068 52.9806185,50.0734418 52.7240538,49.6892466 L50.6715358,46.1034247 C50.2866887,45.5911644 49.9018416,44.6947089 49.9018416,44.6947089 L49.9018416,44.6947089 C49.9018416,44.6947089 50.030124,45.5911644 50.030124,46.1034247 L50.030124,49.3050514 C50.030124,49.8173116 49.9018416,49.9453767 49.3887122,49.9453767 L48.6190179,49.9453767 C48.1058885,49.9453767 47.9776061,49.8173116 47.9776061,49.3050514 L47.9776061,42.3895377 L47.9776061,42.3895377 Z" id="Shape_6_" fill="#58A300" sketch:type="MSShapeGroup"></path>
                                </g>
                                <g id="Clipped_7_">
                                    <g id="SVGID_8_"></g>
                                    <path d="M60.6775606,41.4930822 C62.0886667,41.4930822 62.9866433,42.0053425 63.3714904,42.2614726 C63.7563375,42.5176027 63.7563375,42.7737329 63.4997728,43.1579281 L63.243208,43.6701884 C63.1149257,44.0543836 62.7300786,44.0543836 62.3452314,43.7982534 C61.9603843,43.6701884 61.5755372,43.2859932 60.805843,43.2859932 C59.1381722,43.2859932 58.368478,44.3105137 58.368478,45.5911644 C58.368478,47.1279452 59.394737,48.1524658 60.6775606,48.1524658 C61.832102,48.1524658 62.3452314,47.5121404 62.3452314,47.5121404 L62.3452314,46.9998801 L61.832102,46.9998801 C61.3189725,46.9998801 61.1906901,46.8718151 61.1906901,46.3595548 L61.1906901,45.8472945 C61.1906901,45.3350342 61.3189725,45.2069692 61.832102,45.2069692 L63.4997728,45.2069692 C64.0129022,45.2069692 64.1411846,45.3350342 64.1411846,45.8472945 L64.1411846,49.3050514 C64.1411846,49.8173116 64.0129022,49.9453767 63.4997728,49.9453767 L63.1149257,49.9453767 C62.6017962,49.9453767 62.4735138,49.8173116 62.4735138,49.4331164 L62.4735138,49.4331164 L62.4735138,49.3050514 C62.4735138,49.3050514 61.7038196,50.0734418 60.1644312,50.0734418 C57.9836309,50.0734418 56.0593954,48.4085959 56.0593954,45.8472945 C56.3159601,43.4140582 58.1119133,41.4930822 60.6775606,41.4930822" id="Shape_7_" fill="#58A300" sketch:type="MSShapeGroup"></path>
                                </g>
                                <g id="Clipped_8_">
                                    <g id="SVGID_9_"></g>
                                    <path d="M69.6573265,48.2805308 C71.0684326,48.2805308 71.9664091,47.2560103 71.9664091,45.7192295 C71.9664091,44.3105137 71.0684326,43.4140582 69.6573265,43.4140582 C68.2462204,43.4140582 67.3482438,44.4385788 67.3482438,45.7192295 C67.3482438,47.2560103 68.2462204,48.2805308 69.6573265,48.2805308 M69.6573265,41.4930822 C72.2229739,41.4930822 74.018927,43.4140582 74.018927,45.7192295 C74.018927,48.1524658 72.2229739,50.0734418 69.6573265,50.0734418 C67.0916791,50.0734418 65.2957259,48.1524658 65.2957259,45.7192295 C65.1674436,43.4140582 66.9633967,41.4930822 69.6573265,41.4930822" id="Shape_8_" fill="#58A300" sketch:type="MSShapeGroup"></path>
                                </g>
                                <g id="Clipped_9_">
                                    <g id="SVGID_10_"></g>
                                    <path d="M13.7262135,23.4359075 C13.7262135,22.6675171 14.239343,22.1552568 15.0090372,22.1552568 L16.5484256,22.1552568 C17.3181198,22.1552568 17.8312493,22.6675171 17.8312493,23.4359075 L17.8312493,28.5585103 L19.4989201,28.5585103 L22.4494146,22.9236473 C22.8342617,22.2833219 23.2191088,22.0271918 23.988803,22.0271918 L25.6564738,22.0271918 C26.6827328,22.0271918 27.0675799,22.6675171 26.5544504,23.5639726 L22.8342617,30.0952911 L22.8342617,30.2233562 L26.8110152,37.2669349 C27.3241446,38.1633904 26.9392975,38.8037158 25.9130386,38.8037158 L24.1170854,38.8037158 C23.3473912,38.8037158 22.9625441,38.5475856 22.577697,37.9072603 L19.4989201,32.0162671 L17.8312493,32.0162671 L17.8312493,37.5230651 C17.8312493,38.2914555 17.3181198,38.8037158 16.5484256,38.8037158 L15.0090372,38.8037158 C14.239343,38.8037158 13.7262135,38.2914555 13.7262135,37.5230651 L13.7262135,23.4359075 L13.7262135,23.4359075 L13.7262135,23.4359075 Z" id="Shape_9_" fill="#58A300" sketch:type="MSShapeGroup"></path>
                                </g>
                                <g id="Clipped_10_">
                                    <g id="SVGID_11_"></g>
                                    <path d="M32.7120042,36.1143493 C33.8665455,36.1143493 34.7645221,34.9617637 34.7645221,33.9372432 L34.7645221,33.5530479 L34.379675,33.5530479 C33.0968513,33.5530479 31.5574628,33.9372432 31.5574628,34.9617637 C31.5574628,35.7301541 31.9423099,36.1143493 32.7120042,36.1143493 M34.379675,31.3759418 L34.7645221,31.3759418 L34.7645221,31.2478767 C34.7645221,30.2233562 33.9948278,29.839161 33.0968513,29.839161 C32.327157,29.839161 31.5574628,30.0952911 30.916051,30.3514212 C30.1463568,30.7356164 29.5049449,30.4794863 29.2483802,29.839161 L28.9918154,29.1988356 C28.6069683,28.4304452 28.8635331,27.7901199 29.5049449,27.5339897 C30.4029215,27.0217295 31.8140276,26.6375342 33.6099807,26.6375342 C36.9453223,26.6375342 38.9978402,28.5585103 38.9978402,31.6320719 L38.9978402,37.7791952 C38.9978402,38.5475856 38.4847108,39.0598459 37.7150166,39.0598459 L36.6887576,39.0598459 C35.9190634,39.0598459 35.4059339,38.5475856 35.4059339,37.6511301 L35.4059339,37.5230651 L35.4059339,37.2669349 L35.2776515,37.2669349 C35.2776515,37.2669349 34.1231102,39.187911 31.6857452,39.187911 C29.3766626,39.187911 27.7089918,37.5230651 27.7089918,35.474024 C27.5807094,32.2723973 31.4291805,31.3759418 34.379675,31.3759418" id="Shape_10_" fill="#58A300" sketch:type="MSShapeGroup"></path>
                                </g>
                                <g id="Clipped_11_">
                                    <g id="SVGID_12_"></g>
                                    <path d="M40.4089463,28.1743151 C40.4089463,27.4059247 40.9220758,26.8936644 41.69177,26.8936644 L43.1028761,26.8936644 C43.8725703,26.8936644 44.3856998,27.4059247 44.3856998,28.1743151 L44.3856998,28.9427055 C44.3856998,29.3269007 44.2574174,29.7110959 44.2574174,29.7110959 L44.3856998,29.7110959 C44.7705469,28.4304452 46.0533706,26.8936644 47.592759,26.8936644 C48.3624532,26.8936644 48.6190179,27.4059247 48.6190179,28.1743151 L48.6190179,29.5830308 C48.6190179,30.3514212 48.1058885,30.8636815 47.3361942,30.8636815 C45.4119587,30.8636815 44.5139821,32.5285274 44.5139821,34.4495034 L44.5139821,37.9072603 C44.5139821,38.6756507 44.0008526,39.187911 43.2311584,39.187911 L41.8200524,39.187911 C41.0503582,39.187911 40.5372287,38.6756507 40.5372287,37.9072603 L40.4089463,28.1743151 L40.4089463,28.1743151 Z" id="Shape_11_" fill="#58A300" sketch:type="MSShapeGroup"></path>
                                </g>
                                <g id="Clipped_12_">
                                    <g id="SVGID_13_"></g>
                                    <path d="M49.9018416,23.4359075 C49.9018416,22.6675171 50.4149711,22.1552568 51.1846653,22.1552568 L52.5957714,22.1552568 C53.3654656,22.1552568 53.8785951,22.6675171 53.8785951,23.4359075 L53.8785951,34.1933733 C53.8785951,35.0898288 54.1351598,35.3459589 54.6482893,35.3459589 C55.1614188,35.474024 55.5462659,35.7301541 55.5462659,36.3704795 L55.5462659,37.5230651 C55.5462659,38.2914555 55.1614188,38.9317808 54.1351598,38.9317808 C52.0826419,38.9317808 49.7735593,38.4195205 49.7735593,34.3214384 L49.9018416,23.4359075 L49.9018416,23.4359075 Z" id="Shape_12_" fill="#58A300" sketch:type="MSShapeGroup"></path>
                                </g>
                                <g id="Clipped_13_">
                                    <g id="SVGID_14_"></g>
                                    <path d="M56.9573719,28.1743151 C56.9573719,27.4059247 57.4705014,26.8936644 58.2401956,26.8936644 L59.6513017,26.8936644 C60.4209959,26.8936644 60.9341254,27.4059247 60.9341254,28.1743151 L60.9341254,37.6511301 C60.9341254,38.4195205 60.4209959,38.9317808 59.6513017,38.9317808 L58.2401956,38.9317808 C57.4705014,38.9317808 56.9573719,38.4195205 56.9573719,37.6511301 L56.9573719,28.1743151 L56.9573719,28.1743151 Z" id="Shape_13_" fill="#58A300" sketch:type="MSShapeGroup"></path>
                                </g>
                                <g id="Clipped_14_">
                                    <g id="SVGID_15_"></g>
                                    <path d="M56.9573719,24.0762329 L56.9573719,23.5639726 C56.9573719,22.7955822 57.4705014,22.2833219 58.2401956,22.2833219 L59.6513017,22.2833219 C60.4209959,22.2833219 60.9341254,22.7955822 60.9341254,23.5639726 L60.9341254,24.0762329 C60.9341254,24.8446233 60.4209959,25.3568836 59.6513017,25.3568836 L58.2401956,25.3568836 C57.4705014,25.3568836 56.9573719,24.9726884 56.9573719,24.0762329" id="Shape_14_" fill="#58A300" sketch:type="MSShapeGroup"></path>
                                </g>
                                <g id="Clipped_15_">
                                    <g id="SVGID_16_"></g>
                                    <path d="M66.706832,33.681113 C66.9633967,35.0898288 68.1179381,35.7301541 69.4007618,35.7301541 C70.170456,35.7301541 70.9401502,35.474024 71.581562,35.2178938 C72.3512562,34.8336986 72.9926681,34.9617637 73.2492328,35.7301541 L73.6340799,36.3704795 C74.018927,37.1388699 73.8906447,37.7791952 73.1209505,38.0353253 C72.2229739,38.5475856 70.8118678,39.0598459 69.0159146,39.0598459 C64.6543141,39.0598459 62.4735138,35.9862842 62.4735138,32.7846575 C62.4735138,29.3269007 64.7825965,26.6375342 68.6310675,26.6375342 C70.4270207,26.6375342 71.8381268,27.2778596 72.7361034,28.3023801 C72.7361034,28.3023801 74.018927,29.5830308 73.6340799,31.3759418 C73.1209505,34.1933733 69.4007618,34.3214384 66.706832,33.681113" id="Shape_15_" fill="#58A300" sketch:type="MSShapeGroup"></path>
                                </g>
                                <g id="Clipped_16_">
                                    <g id="SVGID_17_"></g>
                                    <path d="M69.144197,29.7110959 C68.1179381,29.4549658 67.0916791,30.3514212 66.8351144,31.2478767 L66.706832,31.5040068 L67.0916791,31.6320719 C68.2462204,31.8882021 69.6573265,31.8882021 69.9138912,30.8636815 C70.170456,30.3514212 69.9138912,29.7110959 69.144197,29.7110959" id="Shape_16_" fill="#FFFFFF" sketch:type="MSShapeGroup"></path>
                                </g>
                            </g>
                        </g>
                        <g id="Group" transform="translate(187.292259, 6.403253)" fill="#58A300" sketch:type="MSShapeGroup">
                            <path d="M0.513129477,0.768390411 C0.513129477,0.640325342 0.513129477,0.640325342 0.513129477,0.768390411 L2.18080028,0.640325342 C2.95049449,0.640325342 3.59190634,1.15258562 3.59190634,1.79291096 C3.59190634,2.30517123 3.20705923,2.68936644 2.82221212,2.81743151 C3.20705923,2.94549658 3.72018871,3.32969178 3.72018871,3.84195205 C3.72018871,4.61034247 3.07877686,5.12260274 2.30908265,5.12260274 L0.769694215,5.12260274 C0.641411846,5.12260274 0.641411846,5.12260274 0.641411846,4.99453767 L0.641411846,0.768390411 L0.513129477,0.768390411 Z M1.92423554,2.4332363 C2.18080028,2.4332363 2.43736502,2.17710616 2.43736502,1.92097603 C2.43736502,1.66484589 2.18080028,1.53678082 1.92423554,1.53678082 L1.41110606,1.53678082 L1.41110606,2.4332363 L1.92423554,2.4332363 L1.92423554,2.4332363 Z M2.05251791,4.22614726 C2.30908265,4.22614726 2.56564738,3.97001712 2.56564738,3.71388699 C2.56564738,3.45775685 2.30908265,3.20162671 2.05251791,3.20162671 L1.53938843,3.20162671 L1.53938843,4.09808219 L2.05251791,4.09808219 L2.05251791,4.22614726 Z" id="Shape"></path>
                            <path d="M4.36160055,0.768390411 C4.36160055,0.640325342 4.48988292,0.640325342 4.36160055,0.768390411 L7.18381268,0.640325342 C7.31209505,0.640325342 7.31209505,0.640325342 7.31209505,0.768390411 L7.31209505,1.40871575 C7.31209505,1.53678082 7.31209505,1.53678082 7.18381268,1.53678082 L5.38785951,1.53678082 L5.38785951,2.30517123 L6.79896557,2.30517123 C6.92724794,2.30517123 6.92724794,2.30517123 6.92724794,2.4332363 L6.92724794,3.07356164 C6.92724794,3.20162671 6.92724794,3.20162671 6.79896557,3.20162671 L5.38785951,3.20162671 L5.38785951,4.09808219 L7.18381268,4.09808219 C7.31209505,4.09808219 7.31209505,4.09808219 7.31209505,4.22614726 L7.31209505,4.8664726 C7.31209505,4.8664726 7.31209505,4.99453767 7.18381268,4.99453767 L4.48988292,4.99453767 C4.36160055,4.99453767 4.36160055,4.99453767 4.36160055,4.8664726 L4.36160055,0.768390411 L4.36160055,0.768390411 Z" id="Shape"></path>
                            <path d="M7.95350689,4.4822774 L8.21007163,3.97001712 C8.21007163,3.84195205 8.338354,3.84195205 8.46663637,3.97001712 C8.46663637,3.97001712 8.97976585,4.35421233 9.36461295,4.35421233 C9.62117769,4.35421233 9.74946006,4.22614726 9.74946006,3.97001712 C9.74946006,3.71388699 9.49289532,3.45775685 9.10804822,3.32969178 C8.59491874,3.07356164 7.82522452,2.68936644 7.82522452,1.92097603 C7.82522452,1.28065068 8.338354,0.640325342 9.36461295,0.640325342 C10.0060248,0.640325342 10.5191543,1.02452055 10.775719,1.15258562 C10.9040014,1.15258562 10.775719,1.28065068 10.775719,1.40871575 L10.3908719,1.92097603 C10.3908719,2.0490411 10.2625895,2.0490411 10.1343072,2.0490411 C10.1343072,2.0490411 9.62117769,1.66484589 9.23633058,1.66484589 C8.97976585,1.66484589 8.85148348,1.79291096 8.85148348,2.0490411 C8.85148348,2.30517123 9.10804822,2.4332363 9.49289532,2.68936644 C10.0060248,2.94549658 10.775719,3.32969178 10.775719,4.09808219 C10.775719,4.73840753 10.2625895,5.37873288 9.23633058,5.37873288 C8.338354,5.37873288 7.95350689,4.99453767 7.82522452,4.8664726 C7.82522452,4.61034247 7.82522452,4.61034247 7.95350689,4.4822774 L7.95350689,4.4822774 Z" id="Shape"></path>
                            <path d="M12.1868251,1.53678082 L11.2888485,1.53678082 C11.1605661,1.53678082 11.1605661,1.53678082 11.1605661,1.40871575 L11.1605661,0.768390411 C11.1605661,0.768390411 11.1605661,0.640325342 11.2888485,0.640325342 L14.1110606,0.640325342 C14.239343,0.640325342 14.239343,0.640325342 14.239343,0.768390411 L14.239343,1.40871575 C14.239343,1.53678082 14.239343,1.53678082 14.1110606,1.53678082 L13.213084,1.53678082 L13.213084,4.99453767 C13.213084,4.99453767 13.213084,5.12260274 13.0848017,5.12260274 L12.3151074,5.12260274 C12.3151074,5.12260274 12.1868251,5.12260274 12.1868251,4.99453767 L12.1868251,1.53678082 L12.1868251,1.53678082 Z" id="Shape"></path>
                            <path d="M14.8807548,0.768390411 C14.8807548,0.640325342 15.0090372,0.640325342 14.8807548,0.768390411 L17.702967,0.640325342 C17.8312493,0.640325342 17.8312493,0.640325342 17.8312493,0.768390411 L17.8312493,1.40871575 C17.8312493,1.53678082 17.8312493,1.53678082 17.702967,1.53678082 L15.9070138,1.53678082 L15.9070138,2.30517123 L17.3181198,2.30517123 C17.4464022,2.30517123 17.4464022,2.30517123 17.4464022,2.4332363 L17.4464022,3.07356164 C17.4464022,3.20162671 17.4464022,3.20162671 17.3181198,3.20162671 L15.9070138,3.20162671 L15.9070138,4.09808219 L17.702967,4.09808219 C17.8312493,4.09808219 17.8312493,4.09808219 17.8312493,4.22614726 L17.8312493,4.8664726 C17.8312493,4.8664726 17.8312493,4.99453767 17.702967,4.99453767 L15.0090372,4.99453767 C14.8807548,4.99453767 14.8807548,4.99453767 14.8807548,4.8664726 L14.8807548,0.768390411 L14.8807548,0.768390411 Z" id="Shape"></path>
                            <path d="M18.7292259,0.768390411 C18.7292259,0.640325342 18.7292259,0.640325342 18.7292259,0.768390411 L20.7817438,0.640325342 C21.551438,0.640325342 22.1928499,1.28065068 22.1928499,2.0490411 C22.1928499,2.68936644 21.8080028,3.07356164 21.2948733,3.32969178 L22.1928499,4.99453767 C22.1928499,5.12260274 22.1928499,5.12260274 22.0645675,5.12260274 L21.1665909,5.12260274 L21.0383086,5.12260274 L20.140332,3.45775685 L19.7554849,3.45775685 L19.7554849,5.12260274 C19.7554849,5.12260274 19.7554849,5.25066781 19.6272025,5.25066781 L18.8575083,5.25066781 C18.7292259,5.25066781 18.7292259,5.25066781 18.7292259,5.12260274 L18.7292259,0.768390411 L18.7292259,0.768390411 Z M20.6534614,2.56130137 C20.9100262,2.56130137 21.1665909,2.30517123 21.1665909,2.0490411 C21.1665909,1.79291096 20.9100262,1.53678082 20.6534614,1.53678082 L19.7554849,1.53678082 L19.7554849,2.56130137 L20.6534614,2.56130137 L20.6534614,2.56130137 Z" id="Shape"></path>
                            <path d="M24.3736502,0.768390411 C24.3736502,0.640325342 24.5019325,0.640325342 24.3736502,0.768390411 L27.1958623,0.640325342 C27.3241446,0.640325342 27.3241446,0.640325342 27.3241446,0.768390411 L27.3241446,1.40871575 C27.3241446,1.53678082 27.3241446,1.53678082 27.1958623,1.53678082 L25.3999091,1.53678082 L25.3999091,2.56130137 L26.8110152,2.56130137 C26.8110152,2.56130137 26.9392975,2.56130137 26.9392975,2.68936644 L26.9392975,3.32969178 C26.9392975,3.32969178 26.9392975,3.45775685 26.8110152,3.45775685 L25.3999091,3.45775685 L25.3999091,4.99453767 C25.3999091,4.99453767 25.3999091,5.12260274 25.2716267,5.12260274 L24.5019325,5.12260274 C24.3736502,5.12260274 24.3736502,5.12260274 24.3736502,4.99453767 L24.3736502,0.768390411 L24.3736502,0.768390411 Z" id="Shape"></path>
                            <path d="M27.9655565,0.768390411 C27.9655565,0.640325342 28.0938389,0.640325342 27.9655565,0.768390411 L30.0180744,0.640325342 C30.7877686,0.640325342 31.4291805,1.28065068 31.4291805,2.0490411 C31.4291805,2.68936644 31.0443334,3.07356164 30.5312039,3.32969178 L31.4291805,4.99453767 C31.4291805,5.12260274 31.4291805,5.12260274 31.3008981,5.12260274 L30.4029215,5.12260274 L30.2746391,5.12260274 L29.5049449,3.32969178 L29.1200978,3.32969178 L29.1200978,4.99453767 C29.1200978,4.99453767 29.1200978,5.12260274 28.9918154,5.12260274 L28.2221212,5.12260274 C28.0938389,5.12260274 28.0938389,5.12260274 28.0938389,4.99453767 L28.0938389,0.768390411 L27.9655565,0.768390411 Z M30.0180744,2.56130137 C30.2746391,2.56130137 30.5312039,2.30517123 30.5312039,2.0490411 C30.5312039,1.79291096 30.2746391,1.53678082 30.0180744,1.53678082 L29.1200978,1.53678082 L29.1200978,2.56130137 L30.0180744,2.56130137 L30.0180744,2.56130137 Z" id="Shape"></path>
                            <path d="M32.327157,0.768390411 C32.327157,0.640325342 32.327157,0.640325342 32.327157,0.768390411 L35.1493692,0.640325342 C35.2776515,0.640325342 35.2776515,0.640325342 35.2776515,0.768390411 L35.2776515,1.40871575 C35.2776515,1.53678082 35.2776515,1.53678082 35.1493692,1.53678082 L33.353416,1.53678082 L33.353416,2.30517123 L34.7645221,2.30517123 C34.8928044,2.30517123 34.8928044,2.30517123 34.8928044,2.4332363 L34.8928044,3.07356164 C34.8928044,3.20162671 34.8928044,3.20162671 34.7645221,3.20162671 L33.353416,3.20162671 L33.353416,4.09808219 L35.1493692,4.09808219 C35.2776515,4.09808219 35.2776515,4.09808219 35.2776515,4.22614726 L35.2776515,4.8664726 C35.2776515,4.8664726 35.2776515,4.99453767 35.1493692,4.99453767 L32.4554394,4.99453767 C32.327157,4.99453767 32.327157,4.99453767 32.327157,4.8664726 L32.327157,0.768390411 L32.327157,0.768390411 Z" id="Shape"></path>
                            <path d="M36.0473458,0.768390411 C36.0473458,0.640325342 36.0473458,0.640325342 36.0473458,0.768390411 L36.9453223,0.640325342 C37.0736047,0.640325342 37.0736047,0.640325342 37.0736047,0.768390411 L37.0736047,3.32969178 C37.0736047,3.71388699 37.4584518,4.09808219 37.8432989,4.09808219 C38.3564284,4.09808219 38.6129931,3.71388699 38.6129931,3.32969178 L38.6129931,0.768390411 C38.6129931,0.768390411 38.6129931,0.640325342 38.7412755,0.640325342 L39.5109697,0.640325342 C39.5109697,0.640325342 39.6392521,0.640325342 39.6392521,0.768390411 L39.6392521,3.45775685 C39.6392521,4.4822774 38.8695579,5.25066781 37.8432989,5.25066781 C36.81704,5.25066781 36.0473458,4.4822774 36.0473458,3.45775685 L36.0473458,0.768390411 L36.0473458,0.768390411 Z" id="Shape"></path>
                            <path d="M40.665511,0.640325342 C40.665511,0.640325342 40.7937934,0.512260274 40.665511,0.640325342 L40.9220758,0.512260274 L43.4877232,2.94549658 L43.4877232,0.768390411 C43.4877232,0.768390411 43.4877232,0.640325342 43.6160055,0.640325342 L44.3856998,0.640325342 C44.3856998,0.640325342 44.5139821,0.640325342 44.5139821,0.768390411 L44.5139821,5.12260274 C44.5139821,5.12260274 44.5139821,5.25066781 44.3856998,5.25066781 L44.2574174,5.25066781 L44.129135,5.25066781 L41.5634876,2.68936644 L41.5634876,5.12260274 C41.5634876,5.12260274 41.5634876,5.25066781 41.4352053,5.25066781 L40.665511,5.25066781 C40.665511,5.25066781 40.5372287,5.25066781 40.5372287,5.12260274 L40.665511,0.640325342 L40.665511,0.640325342 Z" id="Shape"></path>
                            <path d="M45.6685234,0.768390411 C45.6685234,0.640325342 45.6685234,0.640325342 45.6685234,0.768390411 L47.3361942,0.640325342 C48.6190179,0.640325342 49.6452769,1.66484589 49.6452769,2.81743151 C49.6452769,4.09808219 48.6190179,5.12260274 47.3361942,5.12260274 L45.7968058,5.12260274 C45.7968058,5.12260274 45.6685234,5.12260274 45.6685234,4.99453767 L45.6685234,0.768390411 L45.6685234,0.768390411 Z M47.3361942,4.22614726 C48.1058885,4.22614726 48.6190179,3.71388699 48.6190179,2.94549658 C48.6190179,2.17710616 48.1058885,1.66484589 47.3361942,1.66484589 L46.6947824,1.66484589 L46.6947824,4.22614726 L47.3361942,4.22614726 L47.3361942,4.22614726 Z" id="Shape"></path>
                            <path d="M51.1846653,0.768390411 C51.1846653,0.640325342 51.1846653,0.640325342 51.3129477,0.640325342 L52.2109243,0.640325342 C52.2109243,0.640325342 52.3392066,0.640325342 52.3392066,0.768390411 L53.3654656,3.07356164 L54.3917246,0.768390411 C54.3917246,0.768390411 54.3917246,0.640325342 54.5200069,0.640325342 L55.4179835,0.640325342 C55.5462659,0.640325342 55.5462659,0.768390411 55.5462659,0.768390411 L53.493748,5.12260274 C53.493748,5.12260274 53.493748,5.25066781 53.3654656,5.25066781 L53.3654656,5.25066781 C53.3654656,5.25066781 53.2371832,5.25066781 53.2371832,5.12260274 L51.1846653,0.768390411 L51.1846653,0.768390411 Z" id="Shape"></path>
                            <path d="M57.9836309,0.512260274 C59.2664546,0.512260274 60.2927135,1.53678082 60.2927135,2.81743151 C60.2927135,4.09808219 59.2664546,5.12260274 57.9836309,5.12260274 C56.7008072,5.12260274 55.6745482,4.09808219 55.6745482,2.81743151 C55.6745482,1.53678082 56.7008072,0.512260274 57.9836309,0.512260274 L57.9836309,0.512260274 Z M57.9836309,4.09808219 C58.7533251,4.09808219 59.2664546,3.45775685 59.2664546,2.81743151 C59.2664546,2.17710616 58.6250427,1.53678082 57.9836309,1.53678082 C57.342219,1.53678082 56.7008072,2.17710616 56.7008072,2.81743151 C56.7008072,3.58582192 57.2139367,4.09808219 57.9836309,4.09808219 L57.9836309,4.09808219 Z" id="Shape"></path>
                            <path d="M61.0624078,0.640325342 C61.0624078,0.640325342 61.0624078,0.512260274 61.0624078,0.640325342 L61.3189725,0.512260274 L63.8846199,2.94549658 L63.8846199,0.768390411 C63.8846199,0.768390411 63.8846199,0.640325342 64.0129022,0.640325342 L64.7825965,0.640325342 C64.7825965,0.640325342 64.9108788,0.640325342 64.9108788,0.768390411 L64.9108788,5.12260274 C64.9108788,5.12260274 64.9108788,5.25066781 64.7825965,5.25066781 L64.6543141,5.25066781 L64.5260317,5.25066781 L61.9603843,2.68936644 L61.9603843,5.12260274 C61.9603843,5.12260274 61.9603843,5.25066781 61.832102,5.25066781 L61.0624078,5.25066781 C61.0624078,5.25066781 60.9341254,5.25066781 60.9341254,5.12260274 L61.0624078,0.640325342 L61.0624078,0.640325342 Z" id="Shape"></path>
                        </g>
                    </g>
                </g>
            </g>
        </g>
    </g>
</svg>